<svg width="600" height="246" viewBox="0 0 600 246" fill="none" xmlns="http://www.w3.org/2000/svg">
<path d="M599.914 246H0V0H600L599.914 246Z" fill="#0058A3"/>
<path d="M11.6941 123C11.6941 182.46 132.502 231.851 300 231.851C467.498 231.851 588.22 182.547 588.22 123C588.22 63.4528 467.412 14.1486 299.914 14.1486C132.416 14.1486 11.6941 63.5396 11.6941 123Z" fill="#FFDB00"/>
<path d="M282.975 157.896C284.867 160.673 286.93 163.277 289.338 165.621H224.42C224.42 163.017 222.012 157.722 219.175 153.555C216.337 149.389 201.548 126.56 201.548 126.56V157.896C201.548 160.5 201.548 163.017 202.838 165.621H148.753C150.043 163.017 150.043 160.5 150.043 157.896V83.4185C150.043 80.8144 150.043 78.2971 148.753 75.693H202.838C201.548 78.2971 201.548 80.8144 201.548 83.4185V115.883C201.548 115.883 218.831 93.2272 222.786 87.8454C225.795 83.8525 229.493 78.2103 229.493 75.6062H285.899C282.029 78.2103 277.73 82.8976 274.205 87.2378C271.109 91.0571 253.568 112.671 253.568 112.671C253.568 112.671 279.536 152.774 282.975 157.896ZM299.914 83.4185V157.896C299.914 160.5 299.914 163.017 298.624 165.621H403.01V140.709C400.43 142.011 397.936 142.011 395.357 142.011H351.419V130.205H393.637V111.282H351.419V99.477H395.357C397.936 99.477 400.43 99.477 403.01 100.692V75.7798H298.71C299.914 78.2971 299.914 80.8144 299.914 83.4185ZM547.721 157.896C548.581 160.76 550.043 163.364 551.935 165.621H495.357C495.615 163.017 494.669 160.5 493.637 157.896C493.637 157.896 492.777 155.812 491.574 152.774L491.058 151.472H458.47L457.954 152.774C457.954 152.774 457.008 155.291 456.148 157.896C455.288 160.5 454.342 163.017 454.686 165.621H410.06C411.866 163.364 413.242 160.76 414.101 157.896C415.563 153.816 438.779 89.2343 440.843 83.4185C441.789 80.8144 442.734 78.2971 442.39 75.693H517.799C517.111 78.2971 518.487 80.8144 519.433 83.4185C521.668 89.1475 545.83 152.861 547.721 157.896ZM483.921 132.462C479.794 121.612 476.44 112.584 476.01 111.629C475.322 109.72 474.721 107.723 474.291 105.727C473.947 107.723 473.345 109.72 472.743 111.629C472.485 112.497 469.132 121.612 465.262 132.462H483.921ZM123.13 75.693H64.3164C65.6062 78.2971 65.6062 80.8144 65.6062 83.4185V157.896C65.6062 160.5 65.6062 163.017 64.3164 165.621H123.13C121.84 163.017 121.84 160.5 121.84 157.896V83.4185C121.84 80.8144 121.84 78.2103 123.13 75.693ZM529.665 82.8108C529.407 76.4742 534.308 71.1792 540.585 71.0056C540.843 71.0056 541.101 71.0056 541.359 71.0056C547.721 70.9188 552.967 76.0402 553.053 82.3768C553.053 82.5504 553.053 82.6372 553.053 82.8108C553.224 89.3211 548.151 94.7897 541.617 94.9633C535.168 95.1369 529.751 90.0155 529.579 83.4185C529.665 83.2449 529.665 82.9844 529.665 82.8108ZM531.986 82.8108C531.986 88.019 536.114 92.2724 541.359 92.3592C546.518 92.3592 550.731 88.1926 550.817 82.8976C550.817 77.6895 546.69 73.4361 541.445 73.3493C536.457 73.1757 532.244 77.0818 532.072 82.1164C531.986 82.3768 531.986 82.5504 531.986 82.8108ZM539.037 89.8419H536.973V75.693H542.218C544.712 75.7798 546.604 77.7763 546.604 80.2935C546.604 82.0296 545.658 83.5921 544.11 84.4601L547.12 89.9287H544.798L542.047 84.8941H539.037V89.8419ZM539.037 82.8108H541.875C543.25 82.8976 544.454 81.856 544.454 80.4672C544.54 79.0783 543.508 77.8631 542.132 77.8631C542.046 77.8631 541.961 77.8631 541.875 77.8631H539.037V82.8108Z" fill="#0058A3"/>
</svg>
